<svg xmlns="http://www.w3.org/2000/svg" width="223" height="50" viewBox="0 0 223 50" fill="none">
<path d="M24.7 0C11.1 0 0 11.1 0 24.7C0 38.3 11.1 49.4 24.7 49.4C38.3 49.4 49.4 38.3 49.4 24.7C49.4 11.1 38.3 0 24.7 0ZM6.9 24.7C6.9 19.6 9.1 14.9 12.6 11.7C14 10.4 16.4 10.8 17.4 12.5L23.6 23.2C24.2 24.2 24.2 25.4 23.6 26.4L17.4 37.1C16.4 38.9 14 39.2 12.5 37.8C9.1 34.4 6.9 29.8 6.9 24.7ZM32 36.9L25.8 26.2C25.2 25.2 25.2 24 25.8 23L32 12.3C33 10.6 35.3 10.2 36.8 11.5C40.3 14.7 42.5 19.4 42.5 24.5C42.5 29.6 40.3 34.3 36.8 37.5C35.3 39.1 33 38.7 32 36.9Z" fill="#002548"/>
<path d="M69.3438 24.1289V26.4531H61.4688V34H59.0078V15.6797H70.9844V18.0039H61.4688V24.1289H69.3438ZM84.8258 15.6797L93.3844 34H90.4312L88.5172 29.625H79.9312L77.9898 34H75.0367L83.5953 15.6797H84.8258ZM84.2516 19.8359L80.943 27.3008H87.5055L84.2516 19.8359ZM102.495 15.4062C103.571 15.4062 104.455 15.5612 105.148 15.8711C105.859 16.181 106.478 16.5091 107.007 16.8555V19.3984C106.497 19.0156 105.877 18.6602 105.148 18.332C104.418 17.9857 103.626 17.8125 102.769 17.8125C102.222 17.8125 101.648 17.9128 101.046 18.1133C100.463 18.2956 99.9706 18.5964 99.5695 19.0156C99.1685 19.4349 98.968 19.9727 98.968 20.6289C98.968 21.3581 99.2323 21.9141 99.7609 22.2969C100.29 22.6797 100.928 23.0443 101.675 23.3906L104.191 24.5391C105.448 25.1042 106.396 25.7331 107.034 26.4258C107.672 27.1185 107.991 28.0391 107.991 29.1875C107.991 30.1901 107.7 31.0742 107.116 31.8398C106.533 32.5872 105.767 33.1797 104.82 33.6172C103.872 34.0547 102.833 34.2734 101.702 34.2734C100.645 34.2734 99.6698 34.0911 98.7766 33.7266C97.8833 33.362 97.1086 32.9518 96.4523 32.4961V29.9531C97.1633 30.4453 97.9745 30.8919 98.8859 31.293C99.8156 31.6758 100.864 31.8672 102.03 31.8672C102.942 31.8672 103.744 31.6393 104.437 31.1836C105.129 30.7279 105.476 30.099 105.476 29.2969C105.476 28.8411 105.33 28.4492 105.038 28.1211C104.765 27.793 104.428 27.5104 104.027 27.2734C103.626 27.0365 103.234 26.8359 102.851 26.6719L99.8156 25.3047C98.5031 24.7214 97.6099 24.0378 97.1359 23.2539C96.662 22.4701 96.425 21.5677 96.425 20.5469C96.425 19.5807 96.6984 18.7148 97.2453 17.9492C97.8104 17.1654 98.5578 16.5456 99.4875 16.0898C100.417 15.6341 101.42 15.4062 102.495 15.4062ZM126.673 15.6797V18.0039H120.356V33.918H117.895V18.0039H111.579V15.6797H126.673ZM140.514 31.6758V34H131.873V31.6758H134.963V18.0039H131.873V15.6797H140.514V18.0039H137.424V31.6758H140.514ZM163.215 15.6797V34H162.285L150.391 20.9023V34H147.93V15.6797H148.859L160.754 28.9414V15.6797H163.215ZM177.63 23.9922H185.697V31.5117C185.259 31.9857 184.694 32.4505 184.002 32.9062C183.309 33.3438 182.507 33.7083 181.595 34C180.702 34.2734 179.718 34.4102 178.642 34.4102C177.257 34.4102 175.981 34.1641 174.814 33.6719C173.647 33.1615 172.627 32.4688 171.752 31.5938C170.877 30.7188 170.193 29.707 169.701 28.5586C169.227 27.3919 168.99 26.1523 168.99 24.8398C168.99 23.5273 169.227 22.2969 169.701 21.1484C170.193 19.9818 170.877 18.9609 171.752 18.0859C172.627 17.2109 173.647 16.5273 174.814 16.0352C175.981 15.5247 177.257 15.2695 178.642 15.2695C179.973 15.2695 181.058 15.4518 181.896 15.8164C182.753 16.181 183.5 16.6549 184.138 17.2383V19.9453C183.737 19.6536 183.282 19.3346 182.771 18.9883C182.279 18.6419 181.696 18.3411 181.021 18.0859C180.365 17.8125 179.572 17.6758 178.642 17.6758C177.275 17.6758 176.054 17.9857 174.978 18.6055C173.903 19.2253 173.055 20.082 172.435 21.1758C171.815 22.2513 171.505 23.4727 171.505 24.8398C171.505 26.207 171.815 27.4284 172.435 28.5039C173.055 29.5794 173.903 30.4362 174.978 31.0742C176.054 31.694 177.275 32.0039 178.642 32.0039C179.572 32.0039 180.319 31.9128 180.884 31.7305C181.449 31.5299 181.896 31.3112 182.224 31.0742C182.552 30.819 182.817 30.6094 183.017 30.4453L183.045 26.1797H177.63V23.9922ZM196.175 15.2695C197.469 15.2695 198.599 15.5156 199.566 16.0078C200.55 16.5 201.316 17.1745 201.863 18.0312C202.409 18.888 202.683 19.8724 202.683 20.9844C202.683 21.8958 202.573 22.707 202.355 23.418C202.154 24.1107 201.844 24.776 201.425 25.4141C201.006 26.0521 200.486 26.7266 199.866 27.4375C199.247 28.1484 198.536 28.9688 197.734 29.8984H202.82V34H190.378V31.9219C192.019 30.2083 193.359 28.7682 194.398 27.6016C195.437 26.4349 196.202 25.4414 196.695 24.6211C197.187 23.7826 197.433 23.0352 197.433 22.3789C197.433 21.6862 197.214 21.1302 196.777 20.7109C196.339 20.2734 195.756 20.0547 195.027 20.0547C194.261 20.0547 193.468 20.2734 192.648 20.7109C191.846 21.1302 191.18 21.6497 190.652 22.2695V17.0742C191.271 16.5456 192.083 16.1172 193.085 15.7891C194.106 15.4427 195.136 15.2695 196.175 15.2695ZM218.93 15.6797V25.8516H221.036V29.9531H218.93V34H214.364V29.9531H207.309V26.3984C208.749 24.776 210.08 23.1263 211.302 21.4492C212.523 19.7539 213.781 17.8307 215.075 15.6797H218.93ZM214.364 23.4453C213.999 23.9557 213.708 24.375 213.489 24.7031C213.289 25.0312 213.015 25.4141 212.669 25.8516H214.364V23.4453Z" fill="#002548"/>
</svg>