<svg xmlns="http://www.w3.org/2000/svg" width="12" height="12" viewBox="0 0 12 12" fill="none">
<path d="M5 11.5C5 11.6326 4.94732 11.7598 4.85355 11.8536C4.75979 11.9473 4.63261 12 4.5 12H1C0.734784 12 0.48043 11.8946 0.292893 11.7071C0.105357 11.5196 0 11.2652 0 11V1C0 0.734784 0.105357 0.48043 0.292893 0.292893C0.48043 0.105357 0.734784 0 1 0H4.5C4.63261 0 4.75979 0.0526785 4.85355 0.146447C4.94732 0.240215 5 0.367392 5 0.5C5 0.632608 4.94732 0.759785 4.85355 0.853553C4.75979 0.947321 4.63261 1 4.5 1H1V11H4.5C4.63261 11 4.75979 11.0527 4.85355 11.1464C4.94732 11.2402 5 11.3674 5 11.5ZM11.8538 5.64625L9.35375 3.14625C9.28382 3.07624 9.1947 3.02856 9.09765 3.00924C9.00061 2.98991 8.90002 2.99981 8.80861 3.03769C8.71719 3.07556 8.63908 3.13971 8.58414 3.22201C8.5292 3.30431 8.49992 3.40105 8.5 3.5V5.5H4.5C4.36739 5.5 4.24021 5.55268 4.14645 5.64645C4.05268 5.74021 4 5.86739 4 6C4 6.13261 4.05268 6.25979 4.14645 6.35355C4.24021 6.44732 4.36739 6.5 4.5 6.5H8.5V8.5C8.49992 8.59895 8.5292 8.69569 8.58414 8.77799C8.63908 8.86029 8.71719 8.92443 8.80861 8.96231C8.90002 9.00019 9.00061 9.01009 9.09765 8.99076C9.1947 8.97144 9.28382 8.92376 9.35375 8.85375L11.8538 6.35375C11.9002 6.30731 11.9371 6.25217 11.9623 6.19147C11.9874 6.13077 12.0004 6.06571 12.0004 6C12.0004 5.93429 11.9874 5.86923 11.9623 5.80853C11.9371 5.74783 11.9002 5.69269 11.8538 5.64625Z" fill="black"/>
</svg>